<svg viewBox="0 0 1200 750" xmlns="http://www.w3.org/2000/svg" role="img" aria-label="Sphere decoder ASIC preview">
  <defs>
    <linearGradient id="sd-bg" x1="0" y1="0" x2="1" y2="1">
      <stop offset="0" stop-color="#0a0f18"/>
      <stop offset="1" stop-color="#080810"/>
    </linearGradient>
    <radialGradient id="sd-glow" cx="0.2" cy="0.15" r="0.95">
      <stop offset="0" stop-color="#0a84ff" stop-opacity="0.30"/>
      <stop offset="0.5" stop-color="#64d2ff" stop-opacity="0.08"/>
      <stop offset="1" stop-color="#64d2ff" stop-opacity="0"/>
    </radialGradient>
  </defs>
  <rect width="1200" height="750" fill="url(#sd-bg)"/>
  <rect width="1200" height="750" fill="url(#sd-glow)"/>

  <circle cx="46" cy="44" r="7" fill="#ff5f57"/><circle cx="72" cy="44" r="7" fill="#febc2e"/><circle cx="98" cy="44" r="7" fill="#28c840"/>
  <text x="150" y="50" font-family="ui-monospace,Menlo,monospace" font-size="20" fill="#4f5b6a">sphere_decoder.v — synth</text>

  <!-- tree search (8 layers), best path highlighted -->
  <g stroke="#2b3a4f" stroke-width="1.5">
    <line x1="160" y1="150" x2="120" y2="230"/><line x1="160" y1="150" x2="200" y2="230"/>
    <line x1="120" y1="230" x2="90" y2="310"/><line x1="120" y1="230" x2="170" y2="310"/>
    <line x1="200" y1="230" x2="250" y2="310"/><line x1="200" y1="230" x2="160" y2="310"/>
    <line x1="170" y1="310" x2="150" y2="390"/><line x1="170" y1="310" x2="220" y2="390"/>
    <line x1="250" y1="310" x2="300" y2="390"/><line x1="250" y1="310" x2="230" y2="390"/>
    <line x1="220" y1="390" x2="210" y2="470"/><line x1="220" y1="390" x2="270" y2="470"/>
    <line x1="300" y1="390" x2="340" y2="470"/>
  </g>
  <!-- highlighted best path -->
  <polyline points="160,150 200,230 250,310 220,390 270,470 300,540" fill="none" stroke="#0a84ff" stroke-width="3.5" stroke-linecap="round" stroke-linejoin="round"/>
  <g fill="#0c1420" stroke="#3a4a60" stroke-width="2">
    <circle cx="160" cy="150" r="13"/><circle cx="120" cy="230" r="11"/><circle cx="90" cy="310" r="10"/>
    <circle cx="170" cy="310" r="10"/><circle cx="150" cy="390" r="10"/><circle cx="340" cy="470" r="10"/><circle cx="210" cy="470" r="10"/>
  </g>
  <g fill="#0a84ff">
    <circle cx="200" cy="230" r="12"/><circle cx="250" cy="310" r="12"/><circle cx="220" cy="390" r="12"/><circle cx="270" cy="470" r="12"/><circle cx="300" cy="540" r="13"/>
  </g>

  <!-- QAM constellation -->
  <rect x="470" y="170" width="300" height="300" rx="14" fill="#ffffff" fill-opacity="0.03" stroke="#ffffff" stroke-opacity="0.08"/>
  <line x1="620" y1="180" x2="620" y2="460" stroke="#ffffff" stroke-opacity="0.12"/><line x1="480" y1="320" x2="760" y2="320" stroke="#ffffff" stroke-opacity="0.12"/>
  <g fill="#64d2ff">
    <circle cx="530" cy="230" r="6"/><circle cx="590" cy="230" r="6"/><circle cx="650" cy="230" r="6"/><circle cx="710" cy="230" r="6"/>
    <circle cx="530" cy="290" r="6"/><circle cx="590" cy="290" r="6"/><circle cx="650" cy="290" r="6"/><circle cx="710" cy="290" r="6"/>
    <circle cx="530" cy="350" r="6"/><circle cx="590" cy="350" r="6"/><circle cx="650" cy="350" r="6"/><circle cx="710" cy="350" r="6"/>
    <circle cx="530" cy="410" r="6"/><circle cx="590" cy="410" r="6"/><circle cx="650" cy="410" r="6"/><circle cx="710" cy="410" r="6"/>
  </g>
  <text x="478" y="160" font-family="ui-monospace,Menlo,monospace" font-size="15" fill="#5a6573">16-QAM · MIMO detect</text>

  <!-- pipeline stages -->
  <g font-family="ui-monospace,Menlo,monospace" font-size="13" fill="#7b8aa0">
    <text x="820" y="200">8-stage pipeline</text>
  </g>
  <g>
    <rect x="820" y="220" width="300" height="34" rx="6" fill="#0a84ff" fill-opacity="0.14" stroke="#0a84ff" stroke-opacity="0.4"/>
    <line x1="857" y1="220" x2="857" y2="254" stroke="#0a84ff" stroke-opacity="0.4"/><line x1="894" y1="220" x2="894" y2="254" stroke="#0a84ff" stroke-opacity="0.4"/><line x1="931" y1="220" x2="931" y2="254" stroke="#0a84ff" stroke-opacity="0.4"/><line x1="968" y1="220" x2="968" y2="254" stroke="#0a84ff" stroke-opacity="0.4"/><line x1="1005" y1="220" x2="1005" y2="254" stroke="#0a84ff" stroke-opacity="0.4"/><line x1="1042" y1="220" x2="1042" y2="254" stroke="#0a84ff" stroke-opacity="0.4"/><line x1="1079" y1="220" x2="1079" y2="254" stroke="#0a84ff" stroke-opacity="0.4"/>
  </g>

  <!-- metrics -->
  <g font-family="ui-monospace,Menlo,monospace">
    <rect x="820" y="300" width="300" height="80" rx="12" fill="#ffffff" fill-opacity="0.03" stroke="#ffffff" stroke-opacity="0.08"/>
    <text x="844" y="338" font-size="30" font-weight="700" fill="#e8edf4">0.71 ns</text><text x="844" y="364" font-size="14" fill="#6b7686">cycle time</text>
    <rect x="820" y="396" width="300" height="80" rx="12" fill="#ffffff" fill-opacity="0.03" stroke="#ffffff" stroke-opacity="0.08"/>
    <text x="844" y="434" font-size="30" font-weight="700" fill="#e8edf4">42,337 µm²</text><text x="844" y="460" font-size="14" fill="#6b7686">core area · 4-best search</text>
  </g>

  <text x="150" y="640" font-family="ui-monospace,Menlo,monospace" font-size="22" fill="#8a93a3">Sphere Decoder (ASIC)</text>
  <text x="150" y="672" font-family="ui-monospace,Menlo,monospace" font-size="16" fill="#4d5563">Verilog · MIMO detection · 4-best · 8-stage pipeline</text>
</svg>
